<?xml version="1.0" encoding="UTF-8" standalone="no"?>
<!DOCTYPE svg PUBLIC "-//W3C//DTD SVG 1.1//EN"
 "http://www.w3.org/Graphics/SVG/1.1/DTD/svg11.dtd">
<!-- Generated by graphviz version 2.43.0 (0)
 -->
<!-- Title: tb_encrypt_rounds Pages: 1 -->
<svg width="257pt" height="84pt"
 viewBox="0.00 0.00 256.50 84.00" xmlns="http://www.w3.org/2000/svg" xmlns:xlink="http://www.w3.org/1999/xlink">
<g id="graph0" class="graph" transform="scale(1 1) rotate(0) translate(4 80)">
<title>tb_encrypt_rounds</title>
<polygon fill="white" stroke="transparent" points="-4,4 -4,-80 252.5,-80 252.5,4 -4,4"/>
<!-- Node0 -->
<g id="node1" class="node">
<title>Node0</title>
<polygon fill="#bfbfbf" stroke="black" points="49,-0.5 49,-19.5 156,-19.5 156,-0.5 49,-0.5"/>
<text text-anchor="middle" x="102.5" y="-7.5" font-family="Helvetica,sans-Serif" font-size="10.00">tb_encrypt_rounds</text>
</g>
<!-- Node1 -->
<g id="node2" class="node">
<title>Node1</title>
<polygon fill="white" stroke="#bfbfbf" points="0,-56.5 0,-75.5 43,-75.5 43,-56.5 0,-56.5"/>
<text text-anchor="middle" x="21.5" y="-63.5" font-family="Helvetica,sans-Serif" font-size="10.00">i_gen</text>
</g>
<!-- Node1&#45;&gt;Node0 -->
<g id="edge1" class="edge">
<title>Node1&#45;&gt;Node0</title>
<path fill="none" stroke="#8b1a1a" d="M43.07,-50.62C57.86,-40.76 77.01,-27.99 89.52,-19.65"/>
<polygon fill="#8b1a1a" stroke="#8b1a1a" points="40.89,-47.86 34.51,-56.32 44.78,-53.69 40.89,-47.86"/>
</g>
<!-- Node2 -->
<g id="node3" class="node">
<title>Node2</title>
<g id="a_node3"><a xlink:href="../../d4/daf/enumkey__schedule.html" target="_top" xlink:title="key_schedule">
<polygon fill="white" stroke="black" points="61,-56.5 61,-75.5 144,-75.5 144,-56.5 61,-56.5"/>
<text text-anchor="middle" x="102.5" y="-63.5" font-family="Helvetica,sans-Serif" font-size="10.00">key_schedule</text>
</a>
</g>
</g>
<!-- Node2&#45;&gt;Node0 -->
<g id="edge2" class="edge">
<title>Node2&#45;&gt;Node0</title>
<path fill="none" stroke="#8b1a1a" d="M102.5,-45.8C102.5,-36.91 102.5,-26.78 102.5,-19.75"/>
<polygon fill="#8b1a1a" stroke="#8b1a1a" points="99,-46.08 102.5,-56.08 106,-46.08 99,-46.08"/>
</g>
<!-- Node3 -->
<g id="node4" class="node">
<title>Node3</title>
<g id="a_node4"><a xlink:href="../../d8/d2b/enumround__encrypt.html" target="_top" xlink:title="round_encrypt">
<polygon fill="white" stroke="black" points="162.5,-56.5 162.5,-75.5 248.5,-75.5 248.5,-56.5 162.5,-56.5"/>
<text text-anchor="middle" x="205.5" y="-63.5" font-family="Helvetica,sans-Serif" font-size="10.00">round_encrypt</text>
</a>
</g>
</g>
<!-- Node3&#45;&gt;Node0 -->
<g id="edge3" class="edge">
<title>Node3&#45;&gt;Node0</title>
<path fill="none" stroke="#8b1a1a" d="M179.92,-51.59C160.88,-41.61 135.44,-28.27 119.01,-19.65"/>
<polygon fill="#8b1a1a" stroke="#8b1a1a" points="178.47,-54.78 188.95,-56.32 181.72,-48.58 178.47,-54.78"/>
</g>
</g>
</svg>
