<?xml version="1.0" encoding="UTF-8" standalone="no"?>
<!DOCTYPE svg PUBLIC "-//W3C//DTD SVG 1.1//EN"
 "http://www.w3.org/Graphics/SVG/1.1/DTD/svg11.dtd">
<!-- Generated by graphviz version 2.43.0 (0)
 -->
<!-- Title: /home/runner/work/SPECK_Cipher_Verilog/SPECK_Cipher_Verilog/reference_implementation_cxx/speck.cpp Pages: 1 -->
<svg width="274pt" height="117pt"
 viewBox="0.00 0.00 274.00 117.00" xmlns="http://www.w3.org/2000/svg" xmlns:xlink="http://www.w3.org/1999/xlink">
<g id="graph0" class="graph" transform="scale(1 1) rotate(0) translate(4 113)">
<title>/home/runner/work/SPECK_Cipher_Verilog/SPECK_Cipher_Verilog/reference_implementation_cxx/speck.cpp</title>
<polygon fill="white" stroke="transparent" points="-4,4 -4,-113 270,-113 270,4 -4,4"/>
<!-- Node0 -->
<g id="node1" class="node">
<title>Node0</title>
<polygon fill="#bfbfbf" stroke="black" points="47,-56.5 47,-108.5 221,-108.5 221,-56.5 47,-56.5"/>
<text text-anchor="start" x="55" y="-96.5" font-family="Helvetica,sans-Serif" font-size="10.00">/home/runner/work/SPECK</text>
<text text-anchor="start" x="55" y="-85.5" font-family="Helvetica,sans-Serif" font-size="10.00">_Cipher_Verilog/SPECK</text>
<text text-anchor="start" x="55" y="-74.5" font-family="Helvetica,sans-Serif" font-size="10.00">_Cipher_Verilog/reference</text>
<text text-anchor="middle" x="134" y="-63.5" font-family="Helvetica,sans-Serif" font-size="10.00">_implementation_cxx/speck.cpp</text>
</g>
<!-- Node1 -->
<g id="node2" class="node">
<title>Node1</title>
<polygon fill="white" stroke="#bfbfbf" points="0,-0.5 0,-19.5 62,-19.5 62,-0.5 0,-0.5"/>
<text text-anchor="middle" x="31" y="-7.5" font-family="Helvetica,sans-Serif" font-size="10.00">cinttypes</text>
</g>
<!-- Node0&#45;&gt;Node1 -->
<g id="edge1" class="edge">
<title>Node0&#45;&gt;Node1</title>
<path fill="none" stroke="midnightblue" d="M97.4,-56.45C82.17,-46.03 65.05,-34.31 52.01,-25.38"/>
<polygon fill="midnightblue" stroke="midnightblue" points="53.93,-22.46 43.7,-19.7 49.98,-28.23 53.93,-22.46"/>
</g>
<!-- Node2 -->
<g id="node3" class="node">
<title>Node2</title>
<polygon fill="white" stroke="#bfbfbf" points="80,-0.5 80,-19.5 126,-19.5 126,-0.5 80,-0.5"/>
<text text-anchor="middle" x="103" y="-7.5" font-family="Helvetica,sans-Serif" font-size="10.00">cstdio</text>
</g>
<!-- Node0&#45;&gt;Node2 -->
<g id="edge2" class="edge">
<title>Node0&#45;&gt;Node2</title>
<path fill="none" stroke="midnightblue" d="M122.98,-56.45C118.97,-47.33 114.53,-37.22 110.85,-28.85"/>
<polygon fill="midnightblue" stroke="midnightblue" points="114.05,-27.44 106.82,-19.7 107.64,-30.26 114.05,-27.44"/>
</g>
<!-- Node3 -->
<g id="node4" class="node">
<title>Node3</title>
<polygon fill="white" stroke="#bfbfbf" points="144,-0.5 144,-19.5 188,-19.5 188,-0.5 144,-0.5"/>
<text text-anchor="middle" x="166" y="-7.5" font-family="Helvetica,sans-Serif" font-size="10.00">bitset</text>
</g>
<!-- Node0&#45;&gt;Node3 -->
<g id="edge3" class="edge">
<title>Node0&#45;&gt;Node3</title>
<path fill="none" stroke="midnightblue" d="M145.37,-56.45C149.51,-47.33 154.1,-37.22 157.9,-28.85"/>
<polygon fill="midnightblue" stroke="midnightblue" points="161.11,-30.25 162.05,-19.7 154.73,-27.35 161.11,-30.25"/>
</g>
<!-- Node4 -->
<g id="node5" class="node">
<title>Node4</title>
<polygon fill="white" stroke="#bfbfbf" points="206,-0.5 206,-19.5 266,-19.5 266,-0.5 206,-0.5"/>
<text text-anchor="middle" x="236" y="-7.5" font-family="Helvetica,sans-Serif" font-size="10.00">iostream</text>
</g>
<!-- Node0&#45;&gt;Node4 -->
<g id="edge4" class="edge">
<title>Node0&#45;&gt;Node4</title>
<path fill="none" stroke="midnightblue" d="M170.25,-56.45C185.18,-46.13 201.95,-34.53 214.82,-25.64"/>
<polygon fill="midnightblue" stroke="midnightblue" points="217.18,-28.26 223.42,-19.7 213.2,-22.5 217.18,-28.26"/>
</g>
</g>
</svg>
