<?xml version="1.0" encoding="UTF-8" standalone="no"?>
<!DOCTYPE svg PUBLIC "-//W3C//DTD SVG 1.1//EN"
 "http://www.w3.org/Graphics/SVG/1.1/DTD/svg11.dtd">
<!-- Generated by graphviz version 2.43.0 (0)
 -->
<!-- Title: Graphical Class Hierarchy Pages: 1 -->
<svg width="317pt" height="104pt"
 viewBox="0.00 0.00 317.00 104.00" xmlns="http://www.w3.org/2000/svg" xmlns:xlink="http://www.w3.org/1999/xlink">
<g id="graph0" class="graph" transform="scale(1 1) rotate(0) translate(4 100)">
<title>Graphical Class Hierarchy</title>
<polygon fill="white" stroke="transparent" points="-4,4 -4,-100 313,-100 313,4 -4,4"/>
<!-- Node10 -->
<g id="node1" class="node">
<title>Node10</title>
<polygon fill="white" stroke="#bfbfbf" points="10,-76.5 10,-95.5 135,-95.5 135,-76.5 10,-76.5"/>
<text text-anchor="middle" x="72.5" y="-83.5" font-family="Helvetica,sans-Serif" font-size="10.00">key_schedule_encrypt</text>
</g>
<!-- Node6 -->
<g id="node2" class="node">
<title>Node6</title>
<g id="a_node2"><a xlink:href="df/d49/enumcipher__control__module__encrypt.html" target="_top" xlink:title="cipher_control_module\l_encrypt">
<polygon fill="white" stroke="black" points="181,-63 181,-93 309,-93 309,-63 181,-63"/>
<text text-anchor="start" x="189" y="-81" font-family="Helvetica,sans-Serif" font-size="10.00">cipher_control_module</text>
<text text-anchor="middle" x="245" y="-70" font-family="Helvetica,sans-Serif" font-size="10.00">_encrypt</text>
</a>
</g>
</g>
<!-- Node10&#45;&gt;Node6 -->
<g id="edge1" class="edge">
<title>Node10&#45;&gt;Node6</title>
<path fill="none" stroke="#8b1a1a" d="M145.31,-82.63C157.1,-82.08 169.25,-81.51 180.81,-80.96"/>
<polygon fill="#8b1a1a" stroke="#8b1a1a" points="144.88,-79.15 135.05,-83.11 145.21,-86.14 144.88,-79.15"/>
</g>
<!-- Node5 -->
<g id="node3" class="node">
<title>Node5</title>
<g id="a_node3"><a xlink:href="d8/d2b/enumround__encrypt.html" target="_top" xlink:title="round_encrypt">
<polygon fill="white" stroke="black" points="29.5,-38.5 29.5,-57.5 115.5,-57.5 115.5,-38.5 29.5,-38.5"/>
<text text-anchor="middle" x="72.5" y="-45.5" font-family="Helvetica,sans-Serif" font-size="10.00">round_encrypt</text>
</a>
</g>
</g>
<!-- Node5&#45;&gt;Node6 -->
<g id="edge2" class="edge">
<title>Node5&#45;&gt;Node6</title>
<path fill="none" stroke="#8b1a1a" d="M125.61,-57.17C143.01,-60.23 162.59,-63.68 180.74,-66.87"/>
<polygon fill="#8b1a1a" stroke="#8b1a1a" points="126.1,-53.7 115.65,-55.42 124.89,-60.6 126.1,-53.7"/>
</g>
<!-- Node0 -->
<g id="node4" class="node">
<title>Node0</title>
<g id="a_node4"><a xlink:href="d3/d48/enumencryption.html" target="_top" xlink:title="encryption">
<polygon fill="white" stroke="black" points="211,-16.5 211,-35.5 279,-35.5 279,-16.5 211,-16.5"/>
<text text-anchor="middle" x="245" y="-23.5" font-family="Helvetica,sans-Serif" font-size="10.00">encryption</text>
</a>
</g>
</g>
<!-- Node5&#45;&gt;Node0 -->
<g id="edge3" class="edge">
<title>Node5&#45;&gt;Node0</title>
<path fill="none" stroke="#8b1a1a" d="M125.59,-41.28C153.35,-37.7 186.67,-33.4 210.88,-30.27"/>
<polygon fill="#8b1a1a" stroke="#8b1a1a" points="125.12,-37.81 115.65,-42.56 126.01,-44.75 125.12,-37.81"/>
</g>
<!-- Node3 -->
<g id="node5" class="node">
<title>Node3</title>
<polygon fill="white" stroke="#bfbfbf" points="0,-0.5 0,-19.5 145,-19.5 145,-0.5 0,-0.5"/>
<text text-anchor="middle" x="72.5" y="-7.5" font-family="Helvetica,sans-Serif" font-size="10.00">signal_start_key_schedule</text>
</g>
<!-- Node3&#45;&gt;Node0 -->
<g id="edge4" class="edge">
<title>Node3&#45;&gt;Node0</title>
<path fill="none" stroke="#8b1a1a" d="M155.51,-17.7C175.09,-19.53 194.9,-21.39 210.8,-22.88"/>
<polygon fill="#8b1a1a" stroke="#8b1a1a" points="155.6,-14.19 145.31,-16.74 154.94,-21.16 155.6,-14.19"/>
</g>
</g>
</svg>
