<?xml version="1.0" encoding="UTF-8" standalone="no"?>
<!DOCTYPE svg PUBLIC "-//W3C//DTD SVG 1.1//EN"
 "http://www.w3.org/Graphics/SVG/1.1/DTD/svg11.dtd">
<!-- Generated by graphviz version 2.43.0 (0)
 -->
<!-- Title: Graphical Class Hierarchy Pages: 1 -->
<svg width="276pt" height="88pt"
 viewBox="0.00 0.00 276.00 88.00" xmlns="http://www.w3.org/2000/svg" xmlns:xlink="http://www.w3.org/1999/xlink">
<g id="graph0" class="graph" transform="scale(1 1) rotate(0) translate(4 84)">
<title>Graphical Class Hierarchy</title>
<polygon fill="white" stroke="transparent" points="-4,4 -4,-84 272,-84 272,4 -4,4"/>
<!-- Node14 -->
<g id="node1" class="node">
<title>Node14</title>
<polygon fill="white" stroke="#bfbfbf" points="21.5,-55 21.5,-74 64.5,-74 64.5,-55 21.5,-55"/>
<text text-anchor="middle" x="43" y="-62" font-family="Helvetica,sans-Serif" font-size="10.00">i_gen</text>
</g>
<!-- Node1 -->
<g id="node2" class="node">
<title>Node1</title>
<g id="a_node2"><a xlink:href="de/d77/enumtb__round__function__encrypt__decrypt.html" target="_top" xlink:title="tb_round_function_encrypt\l_decrypt">
<polygon fill="white" stroke="black" points="122,-49.5 122,-79.5 268,-79.5 268,-49.5 122,-49.5"/>
<text text-anchor="start" x="130" y="-67.5" font-family="Helvetica,sans-Serif" font-size="10.00">tb_round_function_encrypt</text>
<text text-anchor="middle" x="195" y="-56.5" font-family="Helvetica,sans-Serif" font-size="10.00">_decrypt</text>
</a>
</g>
</g>
<!-- Node14&#45;&gt;Node1 -->
<g id="edge1" class="edge">
<title>Node14&#45;&gt;Node1</title>
<path fill="none" stroke="#8b1a1a" d="M74.82,-64.5C88.52,-64.5 105.29,-64.5 121.87,-64.5"/>
<polygon fill="#8b1a1a" stroke="#8b1a1a" points="74.54,-61 64.54,-64.5 74.54,-68 74.54,-61"/>
</g>
<!-- Node0 -->
<g id="node3" class="node">
<title>Node0</title>
<g id="a_node3"><a xlink:href="d9/d37/enumround__decrypt.html" target="_top" xlink:title="round_decrypt">
<polygon fill="white" stroke="black" points="0,-12 0,-31 86,-31 86,-12 0,-12"/>
<text text-anchor="middle" x="43" y="-19" font-family="Helvetica,sans-Serif" font-size="10.00">round_decrypt</text>
</a>
</g>
</g>
<!-- Node0&#45;&gt;Node1 -->
<g id="edge2" class="edge">
<title>Node0&#45;&gt;Node1</title>
<path fill="none" stroke="#8b1a1a" d="M86.98,-33.82C104.02,-38.71 123.78,-44.37 141.65,-49.49"/>
<polygon fill="#8b1a1a" stroke="#8b1a1a" points="87.87,-30.43 77.29,-31.04 85.94,-37.16 87.87,-30.43"/>
</g>
<!-- Node2 -->
<g id="node4" class="node">
<title>Node2</title>
<g id="a_node4"><a xlink:href="db/d4d/enumtb__round__function__encrypt__one__round.html" target="_top" xlink:title="tb_round_function_encrypt\l_one_round">
<polygon fill="white" stroke="black" points="122,-0.5 122,-30.5 268,-30.5 268,-0.5 122,-0.5"/>
<text text-anchor="start" x="130" y="-18.5" font-family="Helvetica,sans-Serif" font-size="10.00">tb_round_function_encrypt</text>
<text text-anchor="middle" x="195" y="-7.5" font-family="Helvetica,sans-Serif" font-size="10.00">_one_round</text>
</a>
</g>
</g>
<!-- Node0&#45;&gt;Node2 -->
<g id="edge3" class="edge">
<title>Node0&#45;&gt;Node2</title>
<path fill="none" stroke="#8b1a1a" d="M96.34,-19.41C104.56,-19.08 113.18,-18.73 121.75,-18.39"/>
<polygon fill="#8b1a1a" stroke="#8b1a1a" points="96.03,-15.92 86.18,-19.81 96.31,-22.91 96.03,-15.92"/>
</g>
</g>
</svg>
