<?xml version="1.0" encoding="UTF-8" standalone="no"?>
<!DOCTYPE svg PUBLIC "-//W3C//DTD SVG 1.1//EN"
 "http://www.w3.org/Graphics/SVG/1.1/DTD/svg11.dtd">
<!-- Generated by graphviz version 2.43.0 (0)
 -->
<!-- Title: Graphical Class Hierarchy Pages: 1 -->
<svg width="315pt" height="176pt"
 viewBox="0.00 0.00 315.00 176.00" xmlns="http://www.w3.org/2000/svg" xmlns:xlink="http://www.w3.org/1999/xlink">
<g id="graph0" class="graph" transform="scale(1 1) rotate(0) translate(4 172)">
<title>Graphical Class Hierarchy</title>
<polygon fill="white" stroke="transparent" points="-4,4 -4,-172 311,-172 311,4 -4,4"/>
<!-- Node13 -->
<g id="node1" class="node">
<title>Node13</title>
<polygon fill="white" stroke="#bfbfbf" points="41,-58 41,-77 84,-77 84,-58 41,-58"/>
<text text-anchor="middle" x="62.5" y="-65" font-family="Helvetica,sans-Serif" font-size="10.00">i_gen</text>
</g>
<!-- Node2 -->
<g id="node2" class="node">
<title>Node2</title>
<g id="a_node2"><a xlink:href="d3/d48/enumencryption.html" target="_top" xlink:title="encryption">
<polygon fill="white" stroke="black" points="200,-99 200,-118 268,-118 268,-99 200,-99"/>
<text text-anchor="middle" x="234" y="-106" font-family="Helvetica,sans-Serif" font-size="10.00">encryption</text>
</a>
</g>
</g>
<!-- Node13&#45;&gt;Node2 -->
<g id="edge1" class="edge">
<title>Node13&#45;&gt;Node2</title>
<path fill="none" stroke="#8b1a1a" d="M94.14,-74.91C123.96,-82.12 169.13,-93.05 199.79,-100.47"/>
<polygon fill="#8b1a1a" stroke="#8b1a1a" points="94.83,-71.48 84.28,-72.53 93.18,-78.28 94.83,-71.48"/>
</g>
<!-- Node9 -->
<g id="node3" class="node">
<title>Node9</title>
<g id="a_node3"><a xlink:href="de/d77/enumtb__round__function__encrypt__decrypt.html" target="_top" xlink:title="tb_round_function_encrypt\l_decrypt">
<polygon fill="white" stroke="black" points="161,-49.5 161,-79.5 307,-79.5 307,-49.5 161,-49.5"/>
<text text-anchor="start" x="169" y="-67.5" font-family="Helvetica,sans-Serif" font-size="10.00">tb_round_function_encrypt</text>
<text text-anchor="middle" x="234" y="-56.5" font-family="Helvetica,sans-Serif" font-size="10.00">_decrypt</text>
</a>
</g>
</g>
<!-- Node13&#45;&gt;Node9 -->
<g id="edge2" class="edge">
<title>Node13&#45;&gt;Node9</title>
<path fill="none" stroke="#8b1a1a" d="M94.52,-66.95C113.14,-66.62 137.66,-66.19 160.89,-65.78"/>
<polygon fill="#8b1a1a" stroke="#8b1a1a" points="94.22,-63.46 84.28,-67.13 94.34,-70.45 94.22,-63.46"/>
</g>
<!-- Node11 -->
<g id="node4" class="node">
<title>Node11</title>
<polygon fill="white" stroke="#bfbfbf" points="0,-143 0,-162 125,-162 125,-143 0,-143"/>
<text text-anchor="middle" x="62.5" y="-150" font-family="Helvetica,sans-Serif" font-size="10.00">key_schedule_encrypt</text>
</g>
<!-- Node1 -->
<g id="node5" class="node">
<title>Node1</title>
<g id="a_node5"><a xlink:href="df/d49/enumcipher__control__module__encrypt.html" target="_top" xlink:title="cipher_control_module\l_encrypt">
<polygon fill="white" stroke="black" points="170,-137.5 170,-167.5 298,-167.5 298,-137.5 170,-137.5"/>
<text text-anchor="start" x="178" y="-155.5" font-family="Helvetica,sans-Serif" font-size="10.00">cipher_control_module</text>
<text text-anchor="middle" x="234" y="-144.5" font-family="Helvetica,sans-Serif" font-size="10.00">_encrypt</text>
</a>
</g>
</g>
<!-- Node11&#45;&gt;Node1 -->
<g id="edge3" class="edge">
<title>Node11&#45;&gt;Node1</title>
<path fill="none" stroke="#8b1a1a" d="M135.21,-152.5C146.75,-152.5 158.63,-152.5 169.95,-152.5"/>
<polygon fill="#8b1a1a" stroke="#8b1a1a" points="135.17,-149 125.17,-152.5 135.17,-156 135.17,-149"/>
</g>
<!-- Node8 -->
<g id="node6" class="node">
<title>Node8</title>
<g id="a_node6"><a xlink:href="d9/d37/enumround__decrypt.html" target="_top" xlink:title="round_decrypt">
<polygon fill="white" stroke="black" points="19.5,-15 19.5,-34 105.5,-34 105.5,-15 19.5,-15"/>
<text text-anchor="middle" x="62.5" y="-22" font-family="Helvetica,sans-Serif" font-size="10.00">round_decrypt</text>
</a>
</g>
</g>
<!-- Node8&#45;&gt;Node9 -->
<g id="edge4" class="edge">
<title>Node8&#45;&gt;Node9</title>
<path fill="none" stroke="#8b1a1a" d="M114.01,-36.42C131.35,-40.51 150.98,-45.14 169.23,-49.45"/>
<polygon fill="#8b1a1a" stroke="#8b1a1a" points="114.64,-32.97 104.1,-34.08 113.03,-39.78 114.64,-32.97"/>
</g>
<!-- Node10 -->
<g id="node7" class="node">
<title>Node10</title>
<g id="a_node7"><a xlink:href="db/d4d/enumtb__round__function__encrypt__one__round.html" target="_top" xlink:title="tb_round_function_encrypt\l_one_round">
<polygon fill="white" stroke="black" points="161,-0.5 161,-30.5 307,-30.5 307,-0.5 161,-0.5"/>
<text text-anchor="start" x="169" y="-18.5" font-family="Helvetica,sans-Serif" font-size="10.00">tb_round_function_encrypt</text>
<text text-anchor="middle" x="234" y="-7.5" font-family="Helvetica,sans-Serif" font-size="10.00">_one_round</text>
</a>
</g>
</g>
<!-- Node8&#45;&gt;Node10 -->
<g id="edge5" class="edge">
<title>Node8&#45;&gt;Node10</title>
<path fill="none" stroke="#8b1a1a" d="M115.91,-21.72C130.14,-20.96 145.79,-20.13 160.9,-19.33"/>
<polygon fill="#8b1a1a" stroke="#8b1a1a" points="115.64,-18.23 105.83,-22.25 116.01,-25.22 115.64,-18.23"/>
</g>
<!-- Node0 -->
<g id="node8" class="node">
<title>Node0</title>
<g id="a_node8"><a xlink:href="d8/d2b/enumround__encrypt.html" target="_top" xlink:title="round_encrypt">
<polygon fill="white" stroke="black" points="19.5,-102 19.5,-121 105.5,-121 105.5,-102 19.5,-102"/>
<text text-anchor="middle" x="62.5" y="-109" font-family="Helvetica,sans-Serif" font-size="10.00">round_encrypt</text>
</a>
</g>
</g>
<!-- Node0&#45;&gt;Node2 -->
<g id="edge7" class="edge">
<title>Node0&#45;&gt;Node2</title>
<path fill="none" stroke="#8b1a1a" d="M116.05,-110.57C143.45,-110.08 176.13,-109.51 199.97,-109.08"/>
<polygon fill="#8b1a1a" stroke="#8b1a1a" points="115.77,-107.07 105.83,-110.75 115.9,-114.07 115.77,-107.07"/>
</g>
<!-- Node0&#45;&gt;Node1 -->
<g id="edge6" class="edge">
<title>Node0&#45;&gt;Node1</title>
<path fill="none" stroke="#8b1a1a" d="M112.59,-123.37C130.72,-127.76 151.52,-132.79 170.67,-137.42"/>
<polygon fill="#8b1a1a" stroke="#8b1a1a" points="113.36,-119.96 102.81,-121.01 111.71,-126.76 113.36,-119.96"/>
</g>
</g>
</svg>
