<?xml version="1.0" encoding="UTF-8" standalone="no"?>
<!DOCTYPE svg PUBLIC "-//W3C//DTD SVG 1.1//EN"
 "http://www.w3.org/Graphics/SVG/1.1/DTD/svg11.dtd">
<!-- Generated by graphviz version 2.43.0 (0)
 -->
<!-- Title: Graphical Class Hierarchy Pages: 1 -->
<svg width="335pt" height="257pt"
 viewBox="0.00 0.00 335.00 257.00" xmlns="http://www.w3.org/2000/svg" xmlns:xlink="http://www.w3.org/1999/xlink">
<g id="graph0" class="graph" transform="scale(1 1) rotate(0) translate(4 253)">
<title>Graphical Class Hierarchy</title>
<polygon fill="white" stroke="transparent" points="-4,4 -4,-253 331,-253 331,4 -4,4"/>
<!-- Node14 -->
<g id="node1" class="node">
<title>Node14</title>
<polygon fill="white" stroke="#bfbfbf" points="51,-191.5 51,-210.5 94,-210.5 94,-191.5 51,-191.5"/>
<text text-anchor="middle" x="72.5" y="-198.5" font-family="Helvetica,sans-Serif" font-size="10.00">i_gen</text>
</g>
<!-- Node8 -->
<g id="node2" class="node">
<title>Node8</title>
<g id="a_node2"><a xlink:href="d6/dbf/enumtb__encrypt__rounds.html" target="_top" xlink:title="tb_encrypt_rounds">
<polygon fill="white" stroke="black" points="200.5,-224.5 200.5,-243.5 307.5,-243.5 307.5,-224.5 200.5,-224.5"/>
<text text-anchor="middle" x="254" y="-231.5" font-family="Helvetica,sans-Serif" font-size="10.00">tb_encrypt_rounds</text>
</a>
</g>
</g>
<!-- Node14&#45;&gt;Node8 -->
<g id="edge1" class="edge">
<title>Node14&#45;&gt;Node8</title>
<path fill="none" stroke="#8b1a1a" d="M103.94,-206.6C130.46,-211.47 169.48,-218.65 200.95,-224.43"/>
<polygon fill="#8b1a1a" stroke="#8b1a1a" points="104.56,-203.15 94.09,-204.79 103.29,-210.04 104.56,-203.15"/>
</g>
<!-- Node9 -->
<g id="node3" class="node">
<title>Node9</title>
<g id="a_node3"><a xlink:href="de/d77/enumtb__round__function__encrypt__decrypt.html" target="_top" xlink:title="tb_round_function_encrypt\l_decrypt">
<polygon fill="white" stroke="black" points="181,-175 181,-205 327,-205 327,-175 181,-175"/>
<text text-anchor="start" x="189" y="-193" font-family="Helvetica,sans-Serif" font-size="10.00">tb_round_function_encrypt</text>
<text text-anchor="middle" x="254" y="-182" font-family="Helvetica,sans-Serif" font-size="10.00">_decrypt</text>
</a>
</g>
</g>
<!-- Node14&#45;&gt;Node9 -->
<g id="edge2" class="edge">
<title>Node14&#45;&gt;Node9</title>
<path fill="none" stroke="#8b1a1a" d="M104.33,-199.11C125.36,-197.82 154.13,-196.06 180.76,-194.43"/>
<polygon fill="#8b1a1a" stroke="#8b1a1a" points="103.86,-195.63 94.09,-199.74 104.29,-202.62 103.86,-195.63"/>
</g>
<!-- Node13 -->
<g id="node4" class="node">
<title>Node13</title>
<g id="a_node4"><a xlink:href="d4/daf/enumkey__schedule.html" target="_top" xlink:title="key_schedule">
<polygon fill="white" stroke="black" points="31,-229.5 31,-248.5 114,-248.5 114,-229.5 31,-229.5"/>
<text text-anchor="middle" x="72.5" y="-236.5" font-family="Helvetica,sans-Serif" font-size="10.00">key_schedule</text>
</a>
</g>
</g>
<!-- Node13&#45;&gt;Node8 -->
<g id="edge3" class="edge">
<title>Node13&#45;&gt;Node8</title>
<path fill="none" stroke="#8b1a1a" d="M124.46,-237.58C148.24,-236.92 176.52,-236.13 200.49,-235.46"/>
<polygon fill="#8b1a1a" stroke="#8b1a1a" points="124.13,-234.09 114.23,-237.87 124.32,-241.09 124.13,-234.09"/>
</g>
<!-- Node12 -->
<g id="node5" class="node">
<title>Node12</title>
<polygon fill="white" stroke="#bfbfbf" points="10,-77.5 10,-96.5 135,-96.5 135,-77.5 10,-77.5"/>
<text text-anchor="middle" x="72.5" y="-84.5" font-family="Helvetica,sans-Serif" font-size="10.00">key_schedule_encrypt</text>
</g>
<!-- Node7 -->
<g id="node6" class="node">
<title>Node7</title>
<g id="a_node6"><a xlink:href="df/d49/enumcipher__control__module__encrypt.html" target="_top" xlink:title="cipher_control_module\l_encrypt">
<polygon fill="white" stroke="black" points="190,-77 190,-107 318,-107 318,-77 190,-77"/>
<text text-anchor="start" x="198" y="-95" font-family="Helvetica,sans-Serif" font-size="10.00">cipher_control_module</text>
<text text-anchor="middle" x="254" y="-84" font-family="Helvetica,sans-Serif" font-size="10.00">_encrypt</text>
</a>
</g>
</g>
<!-- Node12&#45;&gt;Node7 -->
<g id="edge4" class="edge">
<title>Node12&#45;&gt;Node7</title>
<path fill="none" stroke="#8b1a1a" d="M145.11,-88.99C159.86,-89.41 175.29,-89.84 189.73,-90.24"/>
<polygon fill="#8b1a1a" stroke="#8b1a1a" points="145.12,-85.49 135.02,-88.71 144.92,-92.49 145.12,-85.49"/>
</g>
<!-- Node10 -->
<g id="node7" class="node">
<title>Node10</title>
<g id="a_node7"><a xlink:href="d9/d37/enumround__decrypt.html" target="_top" xlink:title="round_decrypt">
<polygon fill="white" stroke="black" points="29.5,-153.5 29.5,-172.5 115.5,-172.5 115.5,-153.5 29.5,-153.5"/>
<text text-anchor="middle" x="72.5" y="-160.5" font-family="Helvetica,sans-Serif" font-size="10.00">round_decrypt</text>
</a>
</g>
</g>
<!-- Node10&#45;&gt;Node9 -->
<g id="edge5" class="edge">
<title>Node10&#45;&gt;Node9</title>
<path fill="none" stroke="#8b1a1a" d="M125.49,-170.82C142.8,-173.42 162.41,-176.37 180.96,-179.16"/>
<polygon fill="#8b1a1a" stroke="#8b1a1a" points="125.99,-167.36 115.58,-169.33 124.95,-174.28 125.99,-167.36"/>
</g>
<!-- Node11 -->
<g id="node8" class="node">
<title>Node11</title>
<g id="a_node8"><a xlink:href="db/d4d/enumtb__round__function__encrypt__one__round.html" target="_top" xlink:title="tb_round_function_encrypt\l_one_round">
<polygon fill="white" stroke="black" points="181,-126 181,-156 327,-156 327,-126 181,-126"/>
<text text-anchor="start" x="189" y="-144" font-family="Helvetica,sans-Serif" font-size="10.00">tb_round_function_encrypt</text>
<text text-anchor="middle" x="254" y="-133" font-family="Helvetica,sans-Serif" font-size="10.00">_one_round</text>
</a>
</g>
</g>
<!-- Node10&#45;&gt;Node11 -->
<g id="edge6" class="edge">
<title>Node10&#45;&gt;Node11</title>
<path fill="none" stroke="#8b1a1a" d="M125.97,-156.57C143.17,-154.46 162.58,-152.08 180.96,-149.83"/>
<polygon fill="#8b1a1a" stroke="#8b1a1a" points="125.08,-153.15 115.58,-157.84 125.94,-160.1 125.08,-153.15"/>
</g>
<!-- Node6 -->
<g id="node9" class="node">
<title>Node6</title>
<g id="a_node9"><a xlink:href="d8/d2b/enumround__encrypt.html" target="_top" xlink:title="round_encrypt">
<polygon fill="white" stroke="black" points="29.5,-115.5 29.5,-134.5 115.5,-134.5 115.5,-115.5 29.5,-115.5"/>
<text text-anchor="middle" x="72.5" y="-122.5" font-family="Helvetica,sans-Serif" font-size="10.00">round_encrypt</text>
</a>
</g>
</g>
<!-- Node6&#45;&gt;Node8 -->
<g id="edge9" class="edge">
<title>Node6&#45;&gt;Node8</title>
<path fill="none" stroke="#8b1a1a" d="M125.35,-133.14C132.43,-135.8 139.24,-139.33 145,-144 172.5,-166.26 153.48,-192.76 181,-215 186.63,-219.55 193.24,-223.02 200.14,-225.66"/>
<polygon fill="#8b1a1a" stroke="#8b1a1a" points="126.19,-129.73 115.6,-130.01 124.06,-136.4 126.19,-129.73"/>
</g>
<!-- Node6&#45;&gt;Node9 -->
<g id="edge10" class="edge">
<title>Node6&#45;&gt;Node9</title>
<path fill="none" stroke="#8b1a1a" d="M125.49,-136.92C132.16,-138.99 138.81,-141.35 145,-144 162.24,-151.37 164,-158.1 181,-166 187.93,-169.22 195.42,-172.22 202.85,-174.92"/>
<polygon fill="#8b1a1a" stroke="#8b1a1a" points="126.35,-133.52 115.77,-134.07 124.39,-140.24 126.35,-133.52"/>
</g>
<!-- Node6&#45;&gt;Node7 -->
<g id="edge7" class="edge">
<title>Node6&#45;&gt;Node7</title>
<path fill="none" stroke="#8b1a1a" d="M125.47,-115.45C145.54,-111.76 168.7,-107.5 189.73,-103.63"/>
<polygon fill="#8b1a1a" stroke="#8b1a1a" points="124.79,-112.01 115.58,-117.26 126.05,-118.9 124.79,-112.01"/>
</g>
<!-- Node0 -->
<g id="node10" class="node">
<title>Node0</title>
<g id="a_node10"><a xlink:href="d3/d48/enumencryption.html" target="_top" xlink:title="encryption">
<polygon fill="white" stroke="black" points="220,-38.5 220,-57.5 288,-57.5 288,-38.5 220,-38.5"/>
<text text-anchor="middle" x="254" y="-45.5" font-family="Helvetica,sans-Serif" font-size="10.00">encryption</text>
</a>
</g>
</g>
<!-- Node6&#45;&gt;Node0 -->
<g id="edge8" class="edge">
<title>Node6&#45;&gt;Node0</title>
<path fill="none" stroke="#8b1a1a" d="M125.5,-114.85C132.3,-112.48 138.99,-109.57 145,-106 165,-94.12 161.07,-79.99 181,-68 192.78,-60.91 207.15,-56.26 219.95,-53.25"/>
<polygon fill="#8b1a1a" stroke="#8b1a1a" points="124.03,-111.64 115.52,-117.95 126.1,-118.33 124.03,-111.64"/>
</g>
<!-- Node3 -->
<g id="node11" class="node">
<title>Node3</title>
<polygon fill="white" stroke="#bfbfbf" points="0,-22.5 0,-41.5 145,-41.5 145,-22.5 0,-22.5"/>
<text text-anchor="middle" x="72.5" y="-29.5" font-family="Helvetica,sans-Serif" font-size="10.00">signal_start_key_schedule</text>
</g>
<!-- Node3&#45;&gt;Node0 -->
<g id="edge11" class="edge">
<title>Node3&#45;&gt;Node0</title>
<path fill="none" stroke="#8b1a1a" d="M155.27,-39.29C178.06,-41.32 201.55,-43.41 219.78,-45.04"/>
<polygon fill="#8b1a1a" stroke="#8b1a1a" points="155.49,-35.79 145.22,-38.39 154.87,-42.77 155.49,-35.79"/>
</g>
<!-- Node5 -->
<g id="node12" class="node">
<title>Node5</title>
<g id="a_node12"><a xlink:href="dc/d71/enumtb__key__schedule.html" target="_top" xlink:title="tb_key_schedule">
<polygon fill="white" stroke="black" points="205,-0.5 205,-19.5 303,-19.5 303,-0.5 205,-0.5"/>
<text text-anchor="middle" x="254" y="-7.5" font-family="Helvetica,sans-Serif" font-size="10.00">tb_key_schedule</text>
</a>
</g>
</g>
<!-- Node3&#45;&gt;Node5 -->
<g id="edge12" class="edge">
<title>Node3&#45;&gt;Node5</title>
<path fill="none" stroke="#8b1a1a" d="M155.15,-21.99C172.13,-19.91 189.51,-17.78 204.81,-15.91"/>
<polygon fill="#8b1a1a" stroke="#8b1a1a" points="154.72,-18.52 145.22,-23.21 155.57,-25.47 154.72,-18.52"/>
</g>
</g>
</svg>
