<?xml version="1.0" encoding="UTF-8" standalone="no"?>
<!DOCTYPE svg PUBLIC "-//W3C//DTD SVG 1.1//EN"
 "http://www.w3.org/Graphics/SVG/1.1/DTD/svg11.dtd">
<!-- Generated by graphviz version 2.43.0 (0)
 -->
<!-- Title: Graphical Class Hierarchy Pages: 1 -->
<svg width="276pt" height="127pt"
 viewBox="0.00 0.00 276.00 126.50" xmlns="http://www.w3.org/2000/svg" xmlns:xlink="http://www.w3.org/1999/xlink">
<g id="graph0" class="graph" transform="scale(1 1) rotate(0) translate(4 122.5)">
<title>Graphical Class Hierarchy</title>
<polygon fill="white" stroke="transparent" points="-4,4 -4,-122.5 272,-122.5 272,4 -4,4"/>
<!-- Node12 -->
<g id="node1" class="node">
<title>Node12</title>
<polygon fill="white" stroke="#bfbfbf" points="21.5,-76 21.5,-95 64.5,-95 64.5,-76 21.5,-76"/>
<text text-anchor="middle" x="43" y="-83" font-family="Helvetica,sans-Serif" font-size="10.00">i_gen</text>
</g>
<!-- Node13 -->
<g id="node2" class="node">
<title>Node13</title>
<g id="a_node2"><a xlink:href="dc/d71/enumtb__key__schedule.html" target="_top" xlink:title="tb_key_schedule">
<polygon fill="white" stroke="black" points="146,-99 146,-118 244,-118 244,-99 146,-99"/>
<text text-anchor="middle" x="195" y="-106" font-family="Helvetica,sans-Serif" font-size="10.00">tb_key_schedule</text>
</a>
</g>
</g>
<!-- Node12&#45;&gt;Node13 -->
<g id="edge1" class="edge">
<title>Node12&#45;&gt;Node13</title>
<path fill="none" stroke="#8b1a1a" d="M74.58,-90.19C95.1,-93.33 122.54,-97.54 145.95,-101.13"/>
<polygon fill="#8b1a1a" stroke="#8b1a1a" points="74.96,-86.71 64.54,-88.65 73.9,-93.63 74.96,-86.71"/>
</g>
<!-- Node1 -->
<g id="node3" class="node">
<title>Node1</title>
<g id="a_node3"><a xlink:href="de/d77/enumtb__round__function__encrypt__decrypt.html" target="_top" xlink:title="tb_round_function_encrypt\l_decrypt">
<polygon fill="white" stroke="black" points="122,-49.5 122,-79.5 268,-79.5 268,-49.5 122,-49.5"/>
<text text-anchor="start" x="130" y="-67.5" font-family="Helvetica,sans-Serif" font-size="10.00">tb_round_function_encrypt</text>
<text text-anchor="middle" x="195" y="-56.5" font-family="Helvetica,sans-Serif" font-size="10.00">_decrypt</text>
</a>
</g>
</g>
<!-- Node12&#45;&gt;Node1 -->
<g id="edge2" class="edge">
<title>Node12&#45;&gt;Node1</title>
<path fill="none" stroke="#8b1a1a" d="M74.82,-81.19C88.52,-79.27 105.29,-76.92 121.87,-74.6"/>
<polygon fill="#8b1a1a" stroke="#8b1a1a" points="73.96,-77.77 64.54,-82.62 74.93,-84.7 73.96,-77.77"/>
</g>
<!-- Node0 -->
<g id="node4" class="node">
<title>Node0</title>
<g id="a_node4"><a xlink:href="d9/d37/enumround__decrypt.html" target="_top" xlink:title="round_decrypt">
<polygon fill="white" stroke="black" points="0,-33 0,-52 86,-52 86,-33 0,-33"/>
<text text-anchor="middle" x="43" y="-40" font-family="Helvetica,sans-Serif" font-size="10.00">round_decrypt</text>
</a>
</g>
</g>
<!-- Node0&#45;&gt;Node1 -->
<g id="edge3" class="edge">
<title>Node0&#45;&gt;Node1</title>
<path fill="none" stroke="#8b1a1a" d="M96.34,-50.18C104.56,-51.38 113.18,-52.65 121.75,-53.9"/>
<polygon fill="#8b1a1a" stroke="#8b1a1a" points="96.58,-46.68 86.18,-48.69 95.57,-53.6 96.58,-46.68"/>
</g>
<!-- Node2 -->
<g id="node5" class="node">
<title>Node2</title>
<g id="a_node5"><a xlink:href="db/d4d/enumtb__round__function__encrypt__one__round.html" target="_top" xlink:title="tb_round_function_encrypt\l_one_round">
<polygon fill="white" stroke="black" points="122,-0.5 122,-30.5 268,-30.5 268,-0.5 122,-0.5"/>
<text text-anchor="start" x="130" y="-18.5" font-family="Helvetica,sans-Serif" font-size="10.00">tb_round_function_encrypt</text>
<text text-anchor="middle" x="195" y="-7.5" font-family="Helvetica,sans-Serif" font-size="10.00">_one_round</text>
</a>
</g>
</g>
<!-- Node0&#45;&gt;Node2 -->
<g id="edge4" class="edge">
<title>Node0&#45;&gt;Node2</title>
<path fill="none" stroke="#8b1a1a" d="M96.07,-33.13C104.37,-31.63 113.08,-30.07 121.75,-28.51"/>
<polygon fill="#8b1a1a" stroke="#8b1a1a" points="95.4,-29.69 86.18,-34.91 96.64,-36.58 95.4,-29.69"/>
</g>
</g>
</svg>
