<?xml version="1.0" encoding="UTF-8" standalone="no"?>
<!DOCTYPE svg PUBLIC "-//W3C//DTD SVG 1.1//EN"
 "http://www.w3.org/Graphics/SVG/1.1/DTD/svg11.dtd">
<!-- Generated by graphviz version 2.43.0 (0)
 -->
<!-- Title: tb_round_function_encrypt_decrypt Pages: 1 -->
<svg width="260pt" height="95pt"
 viewBox="0.00 0.00 259.50 95.00" xmlns="http://www.w3.org/2000/svg" xmlns:xlink="http://www.w3.org/1999/xlink">
<g id="graph0" class="graph" transform="scale(1 1) rotate(0) translate(4 91)">
<title>tb_round_function_encrypt_decrypt</title>
<polygon fill="white" stroke="transparent" points="-4,4 -4,-91 255.5,-91 255.5,4 -4,4"/>
<!-- Node0 -->
<g id="node1" class="node">
<title>Node0</title>
<polygon fill="#bfbfbf" stroke="black" points="74,-0.5 74,-30.5 220,-30.5 220,-0.5 74,-0.5"/>
<text text-anchor="start" x="82" y="-18.5" font-family="Helvetica,sans-Serif" font-size="10.00">tb_round_function_encrypt</text>
<text text-anchor="middle" x="147" y="-7.5" font-family="Helvetica,sans-Serif" font-size="10.00">_decrypt</text>
</g>
<!-- Node1 -->
<g id="node2" class="node">
<title>Node1</title>
<g id="a_node2"><a xlink:href="../../d8/d2b/enumround__encrypt.html" target="_top" xlink:title="round_encrypt">
<polygon fill="white" stroke="black" points="0,-67.5 0,-86.5 86,-86.5 86,-67.5 0,-67.5"/>
<text text-anchor="middle" x="43" y="-74.5" font-family="Helvetica,sans-Serif" font-size="10.00">round_encrypt</text>
</a>
</g>
</g>
<!-- Node1&#45;&gt;Node0 -->
<g id="edge1" class="edge">
<title>Node1&#45;&gt;Node0</title>
<path fill="none" stroke="#8b1a1a" d="M66.99,-62.28C83.63,-52.75 105.73,-40.11 122.49,-30.52"/>
<polygon fill="#8b1a1a" stroke="#8b1a1a" points="64.84,-59.47 57.9,-67.48 68.32,-65.55 64.84,-59.47"/>
</g>
<!-- Node2 -->
<g id="node3" class="node">
<title>Node2</title>
<g id="a_node3"><a xlink:href="../../d9/d37/enumround__decrypt.html" target="_top" xlink:title="round_decrypt">
<polygon fill="white" stroke="black" points="104,-67.5 104,-86.5 190,-86.5 190,-67.5 104,-67.5"/>
<text text-anchor="middle" x="147" y="-74.5" font-family="Helvetica,sans-Serif" font-size="10.00">round_decrypt</text>
</a>
</g>
</g>
<!-- Node2&#45;&gt;Node0 -->
<g id="edge2" class="edge">
<title>Node2&#45;&gt;Node0</title>
<path fill="none" stroke="#8b1a1a" d="M140.7,-57.53C139.97,-48.81 140.13,-38.59 141.17,-30.52"/>
<polygon fill="#8b1a1a" stroke="#8b1a1a" points="137.24,-58.06 142.1,-67.48 144.17,-57.09 137.24,-58.06"/>
</g>
<!-- Node2&#45;&gt;Node0 -->
<g id="edge4" class="edge">
<title>Node2&#45;&gt;Node0</title>
<path fill="none" stroke="#8b1a1a" d="M153.3,-57.53C154.03,-48.81 153.87,-38.59 152.83,-30.52"/>
<polygon fill="#8b1a1a" stroke="#8b1a1a" points="149.83,-57.09 151.9,-67.48 156.76,-58.06 149.83,-57.09"/>
</g>
<!-- Node3 -->
<g id="node4" class="node">
<title>Node3</title>
<polygon fill="white" stroke="#bfbfbf" points="208.5,-67.5 208.5,-86.5 251.5,-86.5 251.5,-67.5 208.5,-67.5"/>
<text text-anchor="middle" x="230" y="-74.5" font-family="Helvetica,sans-Serif" font-size="10.00">i_gen</text>
</g>
<!-- Node3&#45;&gt;Node0 -->
<g id="edge3" class="edge">
<title>Node3&#45;&gt;Node0</title>
<path fill="none" stroke="#8b1a1a" d="M209.73,-61.47C196.59,-52.05 179.56,-39.84 166.56,-30.52"/>
<polygon fill="#8b1a1a" stroke="#8b1a1a" points="207.94,-64.49 218.11,-67.48 212.02,-58.8 207.94,-64.49"/>
</g>
</g>
</svg>
