<?xml version="1.0" encoding="UTF-8" standalone="no"?>
<!DOCTYPE svg PUBLIC "-//W3C//DTD SVG 1.1//EN"
 "http://www.w3.org/Graphics/SVG/1.1/DTD/svg11.dtd">
<!-- Generated by graphviz version 2.43.0 (0)
 -->
<!-- Title: tb_round_function_encrypt_decrypt Pages: 1 -->
<svg width="166pt" height="95pt"
 viewBox="0.00 0.00 166.00 95.00" xmlns="http://www.w3.org/2000/svg" xmlns:xlink="http://www.w3.org/1999/xlink">
<g id="graph0" class="graph" transform="scale(1 1) rotate(0) translate(4 91)">
<title>tb_round_function_encrypt_decrypt</title>
<polygon fill="white" stroke="transparent" points="-4,4 -4,-91 162,-91 162,4 -4,4"/>
<!-- Node3 -->
<g id="node1" class="node">
<title>Node3</title>
<polygon fill="#bfbfbf" stroke="black" points="0,-0.5 0,-30.5 146,-30.5 146,-0.5 0,-0.5"/>
<text text-anchor="start" x="8" y="-18.5" font-family="Helvetica,sans-Serif" font-size="10.00">tb_round_function_encrypt</text>
<text text-anchor="middle" x="73" y="-7.5" font-family="Helvetica,sans-Serif" font-size="10.00">_decrypt</text>
</g>
<!-- Node4 -->
<g id="node2" class="node">
<title>Node4</title>
<polygon fill="white" stroke="#bfbfbf" points="10.5,-67.5 10.5,-86.5 53.5,-86.5 53.5,-67.5 10.5,-67.5"/>
<text text-anchor="middle" x="32" y="-74.5" font-family="Helvetica,sans-Serif" font-size="10.00">i_gen</text>
</g>
<!-- Node4&#45;&gt;Node3 -->
<g id="edge1" class="edge">
<title>Node4&#45;&gt;Node3</title>
<path fill="none" stroke="#8b1a1a" d="M43.74,-58.96C49.95,-49.96 57.47,-39.03 63.34,-30.52"/>
<polygon fill="#8b1a1a" stroke="#8b1a1a" points="40.67,-57.25 37.87,-67.48 46.43,-61.23 40.67,-57.25"/>
</g>
<!-- Node5 -->
<g id="node3" class="node">
<title>Node5</title>
<g id="a_node3"><a xlink:href="../../d9/d37/enumround__decrypt.html" target="_top" xlink:title="round_decrypt">
<polygon fill="white" stroke="black" points="72,-67.5 72,-86.5 158,-86.5 158,-67.5 72,-67.5"/>
<text text-anchor="middle" x="115" y="-74.5" font-family="Helvetica,sans-Serif" font-size="10.00">round_decrypt</text>
</a>
</g>
</g>
<!-- Node5&#45;&gt;Node3 -->
<g id="edge2" class="edge">
<title>Node5&#45;&gt;Node3</title>
<path fill="none" stroke="#8b1a1a" d="M103.17,-59.25C96.78,-50.19 88.97,-39.12 82.9,-30.52"/>
<polygon fill="#8b1a1a" stroke="#8b1a1a" points="100.36,-61.32 108.98,-67.48 106.07,-57.29 100.36,-61.32"/>
</g>
</g>
</svg>
