<?xml version="1.0" encoding="UTF-8" standalone="no"?>
<!DOCTYPE svg PUBLIC "-//W3C//DTD SVG 1.1//EN"
 "http://www.w3.org/Graphics/SVG/1.1/DTD/svg11.dtd">
<!-- Generated by graphviz version 2.43.0 (0)
 -->
<!-- Title: round_encrypt Pages: 1 -->
<svg width="276pt" height="165pt"
 viewBox="0.00 0.00 276.00 165.00" xmlns="http://www.w3.org/2000/svg" xmlns:xlink="http://www.w3.org/1999/xlink">
<g id="graph0" class="graph" transform="scale(1 1) rotate(0) translate(4 161)">
<title>round_encrypt</title>
<polygon fill="white" stroke="transparent" points="-4,4 -4,-161 272,-161 272,4 -4,4"/>
<!-- Node0 -->
<g id="node1" class="node">
<title>Node0</title>
<polygon fill="#bfbfbf" stroke="black" points="0,-69 0,-88 86,-88 86,-69 0,-69"/>
<text text-anchor="middle" x="43" y="-76" font-family="Helvetica,sans-Serif" font-size="10.00">round_encrypt</text>
</g>
<!-- Node1 -->
<g id="node2" class="node">
<title>Node1</title>
<g id="a_node2"><a xlink:href="../../df/d49/enumcipher__control__module__encrypt.html" target="_top" xlink:title="cipher_control_module\l_encrypt">
<polygon fill="white" stroke="black" points="131,-126.5 131,-156.5 259,-156.5 259,-126.5 131,-126.5"/>
<text text-anchor="start" x="139" y="-144.5" font-family="Helvetica,sans-Serif" font-size="10.00">cipher_control_module</text>
<text text-anchor="middle" x="195" y="-133.5" font-family="Helvetica,sans-Serif" font-size="10.00">_encrypt</text>
</a>
</g>
</g>
<!-- Node0&#45;&gt;Node1 -->
<g id="edge1" class="edge">
<title>Node0&#45;&gt;Node1</title>
<path fill="none" stroke="#8b1a1a" d="M71.12,-92.7C85.95,-100.21 104.77,-109.34 122,-116.5 130.31,-119.95 139.28,-123.33 147.99,-126.44"/>
<polygon fill="#8b1a1a" stroke="#8b1a1a" points="72.5,-89.47 62,-88.03 69.31,-95.7 72.5,-89.47"/>
</g>
<!-- Node2 -->
<g id="node3" class="node">
<title>Node2</title>
<g id="a_node3"><a xlink:href="../../d3/d48/enumencryption.html" target="_top" xlink:title="encryption">
<polygon fill="white" stroke="black" points="161,-88 161,-107 229,-107 229,-88 161,-88"/>
<text text-anchor="middle" x="195" y="-95" font-family="Helvetica,sans-Serif" font-size="10.00">encryption</text>
</a>
</g>
</g>
<!-- Node0&#45;&gt;Node2 -->
<g id="edge2" class="edge">
<title>Node0&#45;&gt;Node2</title>
<path fill="none" stroke="#8b1a1a" d="M96.12,-85.1C117.54,-87.81 141.71,-90.88 160.68,-93.28"/>
<polygon fill="#8b1a1a" stroke="#8b1a1a" points="96.54,-81.63 86.18,-83.84 95.66,-88.57 96.54,-81.63"/>
</g>
<!-- Node3 -->
<g id="node4" class="node">
<title>Node3</title>
<g id="a_node4"><a xlink:href="../../d6/dbf/enumtb__encrypt__rounds.html" target="_top" xlink:title="tb_encrypt_rounds">
<polygon fill="white" stroke="black" points="141.5,-50 141.5,-69 248.5,-69 248.5,-50 141.5,-50"/>
<text text-anchor="middle" x="195" y="-57" font-family="Helvetica,sans-Serif" font-size="10.00">tb_encrypt_rounds</text>
</a>
</g>
</g>
<!-- Node0&#45;&gt;Node3 -->
<g id="edge3" class="edge">
<title>Node0&#45;&gt;Node3</title>
<path fill="none" stroke="#8b1a1a" d="M96.53,-71.85C111.08,-70 126.88,-68 141.44,-66.16"/>
<polygon fill="#8b1a1a" stroke="#8b1a1a" points="95.66,-68.43 86.18,-73.16 96.54,-75.37 95.66,-68.43"/>
</g>
<!-- Node4 -->
<g id="node5" class="node">
<title>Node4</title>
<g id="a_node5"><a xlink:href="../../de/d77/enumtb__round__function__encrypt__decrypt.html" target="_top" xlink:title="tb_round_function_encrypt\l_decrypt">
<polygon fill="white" stroke="black" points="122,-0.5 122,-30.5 268,-30.5 268,-0.5 122,-0.5"/>
<text text-anchor="start" x="130" y="-18.5" font-family="Helvetica,sans-Serif" font-size="10.00">tb_round_function_encrypt</text>
<text text-anchor="middle" x="195" y="-7.5" font-family="Helvetica,sans-Serif" font-size="10.00">_decrypt</text>
</a>
</g>
</g>
<!-- Node0&#45;&gt;Node4 -->
<g id="edge4" class="edge">
<title>Node0&#45;&gt;Node4</title>
<path fill="none" stroke="#8b1a1a" d="M71.12,-64.3C85.95,-56.79 104.77,-47.66 122,-40.5 130.31,-37.05 139.28,-33.67 147.99,-30.56"/>
<polygon fill="#8b1a1a" stroke="#8b1a1a" points="69.31,-61.3 62,-68.97 72.5,-67.53 69.31,-61.3"/>
</g>
</g>
</svg>
