<?xml version="1.0" encoding="UTF-8" standalone="no"?>
<!DOCTYPE svg PUBLIC "-//W3C//DTD SVG 1.1//EN"
 "http://www.w3.org/Graphics/SVG/1.1/DTD/svg11.dtd">
<!-- Generated by graphviz version 2.43.0 (0)
 -->
<!-- Title: round_encrypt Pages: 1 -->
<svg width="222pt" height="95pt"
 viewBox="0.00 0.00 222.00 95.00" xmlns="http://www.w3.org/2000/svg" xmlns:xlink="http://www.w3.org/1999/xlink">
<g id="graph0" class="graph" transform="scale(1 1) rotate(0) translate(4 91)">
<title>round_encrypt</title>
<polygon fill="white" stroke="transparent" points="-4,4 -4,-91 218,-91 218,4 -4,4"/>
<!-- Node0 -->
<g id="node1" class="node">
<title>Node0</title>
<polygon fill="#bfbfbf" stroke="black" points="79,-67.5 79,-86.5 165,-86.5 165,-67.5 79,-67.5"/>
<text text-anchor="middle" x="122" y="-74.5" font-family="Helvetica,sans-Serif" font-size="10.00">round_encrypt</text>
</g>
<!-- Node1 -->
<g id="node2" class="node">
<title>Node1</title>
<g id="a_node2"><a xlink:href="../../df/d49/enumcipher__control__module__encrypt.html" target="_top" xlink:title="cipher_control_module\l_encrypt">
<polygon fill="white" stroke="black" points="0,-0.5 0,-30.5 128,-30.5 128,-0.5 0,-0.5"/>
<text text-anchor="start" x="8" y="-18.5" font-family="Helvetica,sans-Serif" font-size="10.00">cipher_control_module</text>
<text text-anchor="middle" x="64" y="-7.5" font-family="Helvetica,sans-Serif" font-size="10.00">_encrypt</text>
</a>
</g>
</g>
<!-- Node0&#45;&gt;Node1 -->
<g id="edge1" class="edge">
<title>Node0&#45;&gt;Node1</title>
<path fill="none" stroke="#8b1a1a" d="M106.49,-60.09C97.51,-50.88 86.32,-39.39 77.67,-30.52"/>
<polygon fill="#8b1a1a" stroke="#8b1a1a" points="104.2,-62.76 113.69,-67.48 109.22,-57.87 104.2,-62.76"/>
</g>
<!-- Node2 -->
<g id="node3" class="node">
<title>Node2</title>
<g id="a_node3"><a xlink:href="../../d3/d48/enumencryption.html" target="_top" xlink:title="encryption">
<polygon fill="white" stroke="black" points="146,-6 146,-25 214,-25 214,-6 146,-6"/>
<text text-anchor="middle" x="180" y="-13" font-family="Helvetica,sans-Serif" font-size="10.00">encryption</text>
</a>
</g>
</g>
<!-- Node0&#45;&gt;Node2 -->
<g id="edge2" class="edge">
<title>Node0&#45;&gt;Node2</title>
<path fill="none" stroke="#8b1a1a" d="M137.6,-60C148.58,-48.74 162.84,-34.1 171.71,-25.01"/>
<polygon fill="#8b1a1a" stroke="#8b1a1a" points="134.78,-57.87 130.31,-67.48 139.8,-62.76 134.78,-57.87"/>
</g>
</g>
</svg>
