<?xml version="1.0" encoding="UTF-8" standalone="no"?>
<!DOCTYPE svg PUBLIC "-//W3C//DTD SVG 1.1//EN"
 "http://www.w3.org/Graphics/SVG/1.1/DTD/svg11.dtd">
<!-- Generated by graphviz version 2.43.0 (0)
 -->
<!-- Title: encryption Pages: 1 -->
<svg width="258pt" height="84pt"
 viewBox="0.00 0.00 257.50 84.00" xmlns="http://www.w3.org/2000/svg" xmlns:xlink="http://www.w3.org/1999/xlink">
<g id="graph0" class="graph" transform="scale(1 1) rotate(0) translate(4 80)">
<title>encryption</title>
<polygon fill="white" stroke="transparent" points="-4,4 -4,-80 253.5,-80 253.5,4 -4,4"/>
<!-- Node3 -->
<g id="node1" class="node">
<title>Node3</title>
<polygon fill="#bfbfbf" stroke="black" points="105.5,-0.5 105.5,-19.5 173.5,-19.5 173.5,-0.5 105.5,-0.5"/>
<text text-anchor="middle" x="139.5" y="-7.5" font-family="Helvetica,sans-Serif" font-size="10.00">encryption</text>
</g>
<!-- Node4 -->
<g id="node2" class="node">
<title>Node4</title>
<polygon fill="white" stroke="#bfbfbf" points="0,-56.5 0,-75.5 145,-75.5 145,-56.5 0,-56.5"/>
<text text-anchor="middle" x="72.5" y="-63.5" font-family="Helvetica,sans-Serif" font-size="10.00">signal_start_key_schedule</text>
</g>
<!-- Node4&#45;&gt;Node3 -->
<g id="edge1" class="edge">
<title>Node4&#45;&gt;Node3</title>
<path fill="none" stroke="#8b1a1a" d="M91.33,-49.82C103.34,-40.15 118.47,-27.95 128.54,-19.83"/>
<polygon fill="#8b1a1a" stroke="#8b1a1a" points="88.85,-47.32 83.26,-56.32 93.25,-52.77 88.85,-47.32"/>
</g>
<!-- Node5 -->
<g id="node3" class="node">
<title>Node5</title>
<g id="a_node3"><a xlink:href="../../d8/d2b/enumround__encrypt.html" target="_top" xlink:title="round_encrypt">
<polygon fill="white" stroke="black" points="163.5,-56.5 163.5,-75.5 249.5,-75.5 249.5,-56.5 163.5,-56.5"/>
<text text-anchor="middle" x="206.5" y="-63.5" font-family="Helvetica,sans-Serif" font-size="10.00">round_encrypt</text>
</a>
</g>
</g>
<!-- Node5&#45;&gt;Node3 -->
<g id="edge2" class="edge">
<title>Node5&#45;&gt;Node3</title>
<path fill="none" stroke="#8b1a1a" d="M187.67,-49.82C175.66,-40.15 160.53,-27.95 150.46,-19.83"/>
<polygon fill="#8b1a1a" stroke="#8b1a1a" points="185.75,-52.77 195.74,-56.32 190.15,-47.32 185.75,-52.77"/>
</g>
</g>
</svg>
