<?xml version="1.0" encoding="UTF-8" standalone="no"?>
<!DOCTYPE svg PUBLIC "-//W3C//DTD SVG 1.1//EN"
 "http://www.w3.org/Graphics/SVG/1.1/DTD/svg11.dtd">
<!-- Generated by graphviz version 2.43.0 (0)
 -->
<!-- Title: cipher_control_module_encrypt Pages: 1 -->
<svg width="238pt" height="95pt"
 viewBox="0.00 0.00 237.50 95.00" xmlns="http://www.w3.org/2000/svg" xmlns:xlink="http://www.w3.org/1999/xlink">
<g id="graph0" class="graph" transform="scale(1 1) rotate(0) translate(4 91)">
<title>cipher_control_module_encrypt</title>
<polygon fill="white" stroke="transparent" points="-4,4 -4,-91 233.5,-91 233.5,4 -4,4"/>
<!-- Node3 -->
<g id="node1" class="node">
<title>Node3</title>
<polygon fill="#bfbfbf" stroke="black" points="41,-0.5 41,-30.5 169,-30.5 169,-0.5 41,-0.5"/>
<text text-anchor="start" x="49" y="-18.5" font-family="Helvetica,sans-Serif" font-size="10.00">cipher_control_module</text>
<text text-anchor="middle" x="105" y="-7.5" font-family="Helvetica,sans-Serif" font-size="10.00">_encrypt</text>
</g>
<!-- Node4 -->
<g id="node2" class="node">
<title>Node4</title>
<g id="a_node2"><a xlink:href="../../d8/d2b/enumround__encrypt.html" target="_top" xlink:title="round_encrypt">
<polygon fill="white" stroke="black" points="0,-67.5 0,-86.5 86,-86.5 86,-67.5 0,-67.5"/>
<text text-anchor="middle" x="43" y="-74.5" font-family="Helvetica,sans-Serif" font-size="10.00">round_encrypt</text>
</a>
</g>
</g>
<!-- Node4&#45;&gt;Node3 -->
<g id="edge1" class="edge">
<title>Node4&#45;&gt;Node3</title>
<path fill="none" stroke="#8b1a1a" d="M59.29,-60.37C68.93,-51.11 81.05,-39.48 90.39,-30.52"/>
<polygon fill="#8b1a1a" stroke="#8b1a1a" points="56.67,-58.03 51.88,-67.48 61.52,-63.08 56.67,-58.03"/>
</g>
<!-- Node5 -->
<g id="node3" class="node">
<title>Node5</title>
<polygon fill="white" stroke="#bfbfbf" points="104.5,-67.5 104.5,-86.5 229.5,-86.5 229.5,-67.5 104.5,-67.5"/>
<text text-anchor="middle" x="167" y="-74.5" font-family="Helvetica,sans-Serif" font-size="10.00">key_schedule_encrypt</text>
</g>
<!-- Node5&#45;&gt;Node3 -->
<g id="edge2" class="edge">
<title>Node5&#45;&gt;Node3</title>
<path fill="none" stroke="#8b1a1a" d="M150.71,-60.37C141.07,-51.11 128.95,-39.48 119.61,-30.52"/>
<polygon fill="#8b1a1a" stroke="#8b1a1a" points="148.48,-63.08 158.12,-67.48 153.33,-58.03 148.48,-63.08"/>
</g>
</g>
</svg>
