<?xml version="1.0" encoding="UTF-8" standalone="no"?>
<!DOCTYPE svg PUBLIC "-//W3C//DTD SVG 1.1//EN"
 "http://www.w3.org/Graphics/SVG/1.1/DTD/svg11.dtd">
<!-- Generated by graphviz version 2.43.0 (0)
 -->
<!-- Title: tb_key_schedule Pages: 1 -->
<svg width="172pt" height="95pt"
 viewBox="0.00 0.00 171.50 95.00" xmlns="http://www.w3.org/2000/svg" xmlns:xlink="http://www.w3.org/1999/xlink">
<g id="graph0" class="graph" transform="scale(1 1) rotate(0) translate(4 91)">
<title>tb_key_schedule</title>
<polygon fill="white" stroke="transparent" points="-4,4 -4,-91 167.5,-91 167.5,4 -4,4"/>
<!-- Node2 -->
<g id="node1" class="node">
<title>Node2</title>
<polygon fill="#bfbfbf" stroke="black" points="27,-0.5 27,-19.5 125,-19.5 125,-0.5 27,-0.5"/>
<text text-anchor="middle" x="76" y="-7.5" font-family="Helvetica,sans-Serif" font-size="10.00">tb_key_schedule</text>
</g>
<!-- Node3 -->
<g id="node2" class="node">
<title>Node3</title>
<polygon fill="white" stroke="#bfbfbf" points="0,-67.5 0,-86.5 62,-86.5 62,-67.5 0,-67.5"/>
<text text-anchor="middle" x="31" y="-74.5" font-family="Helvetica,sans-Serif" font-size="10.00">round_ctr</text>
</g>
<!-- Node3&#45;&gt;Node2 -->
<g id="edge1" class="edge">
<title>Node3&#45;&gt;Node2</title>
<path fill="none" stroke="#8b1a1a" d="M42.84,-58.9C51.58,-46.27 63.12,-29.6 70.03,-19.63"/>
<polygon fill="#8b1a1a" stroke="#8b1a1a" points="39.88,-57.02 37.07,-67.23 45.64,-61 39.88,-57.02"/>
</g>
<!-- Node4 -->
<g id="node3" class="node">
<title>Node4</title>
<g id="a_node3"><a xlink:href="../../d4/daf/enumkey__schedule.html" target="_top" xlink:title="key_schedule">
<polygon fill="white" stroke="black" points="80.5,-67.5 80.5,-86.5 163.5,-86.5 163.5,-67.5 80.5,-67.5"/>
<text text-anchor="middle" x="122" y="-74.5" font-family="Helvetica,sans-Serif" font-size="10.00">key_schedule</text>
</a>
</g>
</g>
<!-- Node4&#45;&gt;Node2 -->
<g id="edge2" class="edge">
<title>Node4&#45;&gt;Node2</title>
<path fill="none" stroke="#9a32cd" stroke-dasharray="5,2" d="M109.9,-58.9C100.96,-46.27 89.17,-29.6 82.11,-19.63"/>
<polygon fill="#9a32cd" stroke="#9a32cd" points="107.16,-61.09 115.8,-67.23 112.88,-57.05 107.16,-61.09"/>
<text text-anchor="middle" x="125.5" y="-41" font-family="Helvetica,sans-Serif" font-size="10.00"> round_ctr</text>
</g>
</g>
</svg>
