<?xml version="1.0" encoding="UTF-8" standalone="no"?>
<!DOCTYPE svg PUBLIC "-//W3C//DTD SVG 1.1//EN"
 "http://www.w3.org/Graphics/SVG/1.1/DTD/svg11.dtd">
<!-- Generated by graphviz version 2.43.0 (0)
 -->
<!-- Title: tb_key_schedule Pages: 1 -->
<svg width="152pt" height="95pt"
 viewBox="0.00 0.00 152.00 95.00" xmlns="http://www.w3.org/2000/svg" xmlns:xlink="http://www.w3.org/1999/xlink">
<g id="graph0" class="graph" transform="scale(1 1) rotate(0) translate(4 91)">
<title>tb_key_schedule</title>
<polygon fill="white" stroke="transparent" points="-4,4 -4,-91 148,-91 148,4 -4,4"/>
<!-- Node2 -->
<g id="node1" class="node">
<title>Node2</title>
<polygon fill="#bfbfbf" stroke="black" points="12.5,-0.5 12.5,-19.5 110.5,-19.5 110.5,-0.5 12.5,-0.5"/>
<text text-anchor="middle" x="61.5" y="-7.5" font-family="Helvetica,sans-Serif" font-size="10.00">tb_key_schedule</text>
</g>
<!-- Node3 -->
<g id="node2" class="node">
<title>Node3</title>
<polygon fill="white" stroke="#bfbfbf" points="0,-67.5 0,-86.5 43,-86.5 43,-67.5 0,-67.5"/>
<text text-anchor="middle" x="21.5" y="-74.5" font-family="Helvetica,sans-Serif" font-size="10.00">i_gen</text>
</g>
<!-- Node3&#45;&gt;Node2 -->
<g id="edge1" class="edge">
<title>Node3&#45;&gt;Node2</title>
<path fill="none" stroke="#8b1a1a" d="M32.25,-58.53C39.99,-45.95 50.11,-29.51 56.19,-19.63"/>
<polygon fill="#8b1a1a" stroke="#8b1a1a" points="29.15,-56.88 26.89,-67.23 35.12,-60.55 29.15,-56.88"/>
</g>
<!-- Node4 -->
<g id="node3" class="node">
<title>Node4</title>
<g id="a_node3"><a xlink:href="../../d4/daf/enumkey__schedule.html" target="_top" xlink:title="key_schedule">
<polygon fill="white" stroke="black" points="61,-67.5 61,-86.5 144,-86.5 144,-67.5 61,-67.5"/>
<text text-anchor="middle" x="102.5" y="-74.5" font-family="Helvetica,sans-Serif" font-size="10.00">key_schedule</text>
</a>
</g>
</g>
<!-- Node4&#45;&gt;Node2 -->
<g id="edge2" class="edge">
<title>Node4&#45;&gt;Node2</title>
<path fill="none" stroke="#9a32cd" stroke-dasharray="5,2" d="M91.48,-58.53C83.55,-45.95 73.17,-29.51 66.94,-19.63"/>
<polygon fill="#9a32cd" stroke="#9a32cd" points="88.68,-60.64 96.97,-67.23 94.6,-56.91 88.68,-60.64"/>
<text text-anchor="middle" x="98.5" y="-41" font-family="Helvetica,sans-Serif" font-size="10.00"> i_gen</text>
</g>
</g>
</svg>
