<?xml version="1.0" encoding="UTF-8" standalone="no"?>
<!DOCTYPE svg PUBLIC "-//W3C//DTD SVG 1.1//EN"
 "http://www.w3.org/Graphics/SVG/1.1/DTD/svg11.dtd">
<!-- Generated by graphviz version 2.43.0 (0)
 -->
<!-- Title: tb_key_schedule Pages: 1 -->
<svg width="315pt" height="95pt"
 viewBox="0.00 0.00 314.50 95.00" xmlns="http://www.w3.org/2000/svg" xmlns:xlink="http://www.w3.org/1999/xlink">
<g id="graph0" class="graph" transform="scale(1 1) rotate(0) translate(4 91)">
<title>tb_key_schedule</title>
<polygon fill="white" stroke="transparent" points="-4,4 -4,-91 310.5,-91 310.5,4 -4,4"/>
<!-- Node2 -->
<g id="node1" class="node">
<title>Node2</title>
<polygon fill="#bfbfbf" stroke="black" points="89.5,-0.5 89.5,-19.5 187.5,-19.5 187.5,-0.5 89.5,-0.5"/>
<text text-anchor="middle" x="138.5" y="-7.5" font-family="Helvetica,sans-Serif" font-size="10.00">tb_key_schedule</text>
</g>
<!-- Node3 -->
<g id="node2" class="node">
<title>Node3</title>
<polygon fill="white" stroke="#bfbfbf" points="0,-67.5 0,-86.5 145,-86.5 145,-67.5 0,-67.5"/>
<text text-anchor="middle" x="72.5" y="-74.5" font-family="Helvetica,sans-Serif" font-size="10.00">signal_start_key_schedule</text>
</g>
<!-- Node3&#45;&gt;Node2 -->
<g id="edge1" class="edge">
<title>Node3&#45;&gt;Node2</title>
<path fill="none" stroke="#8b1a1a" d="M88.75,-60C101.69,-47.25 119.31,-29.89 129.74,-19.63"/>
<polygon fill="#8b1a1a" stroke="#8b1a1a" points="86.07,-57.72 81.4,-67.23 90.98,-62.71 86.07,-57.72"/>
</g>
<!-- Node4 -->
<g id="node3" class="node">
<title>Node4</title>
<g id="a_node3"><a xlink:href="../../d4/daf/enumkey__schedule.html" target="_top" xlink:title="key_schedule">
<polygon fill="white" stroke="black" points="163,-67.5 163,-86.5 246,-86.5 246,-67.5 163,-67.5"/>
<text text-anchor="middle" x="204.5" y="-74.5" font-family="Helvetica,sans-Serif" font-size="10.00">key_schedule</text>
</a>
</g>
</g>
<!-- Node4&#45;&gt;Node2 -->
<g id="edge2" class="edge">
<title>Node4&#45;&gt;Node2</title>
<path fill="none" stroke="#9a32cd" stroke-dasharray="5,2" d="M188.25,-60C175.31,-47.25 157.69,-29.89 147.26,-19.63"/>
<polygon fill="#9a32cd" stroke="#9a32cd" points="186.02,-62.71 195.6,-67.23 190.93,-57.72 186.02,-62.71"/>
<text text-anchor="middle" x="240.5" y="-41" font-family="Helvetica,sans-Serif" font-size="10.00"> signal_start_key_schedule</text>
</g>
</g>
</svg>
